Land_normalized_precision_landing08_filtered_grf
version=1
nRows=25
nColumns=37
inDegrees=yes
endheader
time		1_ground_force_vx		1_ground_force_vy		1_ground_force_vz		1_ground_force_px		1_ground_force_py		1_ground_force_pz		1_ground_torque_x		1_ground_torque_y		1_ground_torque_z		2_ground_force_vx		2_ground_force_vy		2_ground_force_vz		2_ground_force_px		2_ground_force_py		2_ground_force_pz		2_ground_torque_x		2_ground_torque_y		2_ground_torque_z		3_ground_force_vx		3_ground_force_vy		3_ground_force_vz		3_ground_force_px		3_ground_force_py		3_ground_force_pz		3_ground_torque_x		3_ground_torque_y		3_ground_torque_z		4_ground_force_vx		4_ground_force_vy		4_ground_force_vz		4_ground_force_px		4_ground_force_py		4_ground_force_pz		4_ground_torque_x		4_ground_torque_y		4_ground_torque_z		
1.909500		-16.523723		894.990237		293.031473		0.063279		0.000000		0.211661		-0.411739		22.301430		7.301779		42.162451		1193.289560		260.541363		-0.143140		0.000000		0.229989		1.719034		48.652418		10.622709		0.069743		-0.266979		-0.240251		0.380949		1.275788		1.884802		0.021949		-0.000025		0.030799		-0.693568		-0.741321		-0.233852		-0.351979		1.268382		1.872996		-0.007761		-0.013285		-0.013994		
1.912227		-19.158063		857.956451		290.259143		0.062540		0.000000		0.210094		-0.459917		20.597923		6.968504		47.639542		1165.414323		255.722165		-0.143682		0.000000		0.228619		1.989611		48.671040		10.679700		-0.056540		-0.262543		-0.062591		0.380966		1.275790		1.884772		0.021277		0.002101		0.032011		-0.698945		-0.782323		-0.307867		-0.351943		1.268367		1.872997		-0.007424		-0.010365		-0.013370		
1.914955		-22.704237		823.344836		286.425165		0.061971		0.000000		0.208366		-0.522685		18.955079		6.594073		51.636750		1136.545436		250.424382		-0.143994		0.000000		0.227298		2.201107		48.447035		10.674734		-0.081738		-0.267904		0.080362		0.380989		1.275791		1.884744		0.020457		0.001673		0.033151		-0.702224		-0.792840		-0.384763		-0.351900		1.268350		1.872991		-0.007076		-0.007332		-0.012886		
1.917682		-26.876996		792.172402		281.435174		0.061728		0.000000		0.206902		-0.592861		17.475157		6.208366		53.879769		1107.514375		244.369406		-0.144061		0.000000		0.226099		2.329432		47.881961		10.564997		-0.009128		-0.286930		0.165826		0.381015		1.275793		1.884722		0.019568		-0.001338		0.033959		-0.707779		-0.767744		-0.449881		-0.351852		1.268340		1.872978		-0.006914		-0.004665		-0.012521		
1.920409		-31.388768		765.231041		275.753367		0.061921		0.000000		0.206048		-0.663531		16.176926		5.829391		54.467230		1078.893109		237.560783		-0.143925		0.000000		0.225067		2.371248		46.969924		10.342277		0.132146		-0.313176		0.179071		0.381046		1.275798		1.884703		0.018631		-0.006303		0.034345		-0.722790		-0.707966		-0.488340		-0.351801		1.268337		1.872955		-0.007066		-0.002749		-0.012188		
1.923136		-35.997768		742.989531		269.903040		0.062567		0.000000		0.205934		-0.729671		15.060954		5.471130		53.705129		1050.977919		230.252458		-0.143656		0.000000		0.224209		2.339181		45.776401		10.028878		0.303186		-0.331337		0.116898		0.381081		1.275804		1.884686		0.017545		-0.012204		0.034354		-0.754165		-0.619694		-0.488821		-0.351746		1.268344		1.872924		-0.007585		-0.001879		-0.011787		
1.925864		-40.503190		725.369308		264.090968		0.063556		0.000000		0.206399		-0.789360		14.137052		5.146989		51.981311		1023.832251		222.911156		-0.143333		0.000000		0.223493		2.255214		44.419044		9.671021		0.467013		-0.325026		-0.006175		0.381117		1.275813		1.884670		0.016103		-0.017777		0.034023		-0.804601		-0.513945		-0.448233		-0.351692		1.268359		1.872887		-0.008454		-0.002208		-0.011229		
1.928591		-44.737285		711.856423		258.139154		0.064693		0.000000		0.207097		-0.843879		13.427943		4.869354		49.624078		997.385728		216.069835		-0.143019		0.000000		0.222851		2.140696		43.025457		9.320872		0.598221		-0.286513		-0.160427		0.381152		1.275824		1.884652		0.014084		-0.021802		0.033249		-0.870308		-0.404301		-0.373802		-0.351636		1.268379		1.872844		-0.009587		-0.003690		-0.010477		
1.931318		-48.555207		701.684471		251.733801		0.065773		0.000000		0.207662		-0.894767		12.930682		4.638975		46.878606		971.539721		210.143050		-0.142753		0.000000		0.222213		2.012062		41.699096		9.019472		0.686324		-0.222015		-0.309677		0.381185		1.275836		1.884631		0.011403		-0.023453		0.031802		-0.941067		-0.305722		-0.282235		-0.351584		1.268399		1.872799		-0.010855		-0.006036		-0.009618		
1.934045		-51.833495		694.039822		244.703957		0.066662		0.000000		0.207875		-0.940549		12.593783		4.440308		43.951133		946.266443		205.265310		-0.142542		0.000000		0.221528		1.880982		40.497457		8.784759		0.734541		-0.149517		-0.422498		0.381213		1.275848		1.884608		0.008226		-0.022576		0.029497		-1.003148		-0.232801		-0.195283		-0.351537		1.268414		1.872753		-0.012095		-0.008752		-0.008895		
1.936773		-54.442457		688.330674		237.105291		0.067324		0.000000		0.207716		-0.976251		12.343069		4.251756		41.038525		921.713971		201.276219		-0.142376		0.000000		0.220791		1.755581		39.429879		8.610369		0.753245		-0.090812		-0.477574		0.381235		1.275860		1.884578		0.004997		-0.019532		0.026372		-1.043982		-0.197317		-0.133001		-0.351497		1.268422		1.872709		-0.013111		-0.011288		-0.008669		
1.939500		-56.269438		684.222025		229.155377		0.067811		0.000000		0.207346		-0.997722		12.132045		4.063189		38.320508		898.202434		197.790153		-0.142240		0.000000		0.220045		1.641088		38.465796		8.470424		0.755018		-0.062316		-0.466978		0.381249		1.275870		1.884544		0.002341		-0.015022		0.022855		-1.058033		-0.202510		-0.105254		-0.351466		1.268419		1.872666		-0.013644		-0.013222		-0.009269		
1.942227		-57.198096		681.722075		221.099261		0.068196		0.000000		0.207017		-1.006295		11.993639		3.889837		35.933254		876.222397		194.408723		-0.142116		0.000000		0.219358		1.540503		37.564745		8.334544		0.750873		-0.069710		-0.393679		0.381257		1.275878		1.884506		0.000877		-0.009849		0.019724		-1.048487		-0.242203		-0.106979		-0.351443		1.268409		1.872624		-0.013373		-0.014383		-0.010833		
1.944955		-57.193371		680.965093		213.209092		0.068551		0.000000		0.206970		-1.007778		11.998972		3.756856		33.931965		856.273719		190.870946		-0.141989		0.000000		0.218791		1.454140		36.695239		8.179692		0.750843		-0.105262		-0.274673		0.381261		1.275885		1.884463		0.000908		-0.004851		0.017878		-1.026873		-0.301130		-0.116455		-0.351425		1.268392		1.872582		-0.012063		-0.014917		-0.013095		
1.947682		-56.270696		682.136979		205.815542		0.068927		0.000000		0.207365		-1.005220		12.185743		3.676683		32.327735		838.893608		187.130487		-0.141858		0.000000		0.218384		1.381606		35.852176		7.997481		0.763672		-0.154838		-0.134936		0.381260		1.275890		1.884417		0.002337		-0.000682		0.018018		-1.007704		-0.362555		-0.103970		-0.351409		1.268375		1.872537		-0.009662		-0.015219		-0.015443		
1.950409		-54.521594		685.209780		199.268728		0.069335		0.000000		0.208195		-0.994895		12.503580		3.636204		31.115443		824.492572		183.324476		-0.141731		0.000000		0.218136		1.323002		35.056718		7.794801		0.794625		-0.203807		-0.003893		0.381259		1.275897		1.884369		0.004618		0.002396		0.020280		-1.004870		-0.412983		-0.045132		-0.351393		1.268358		1.872487		-0.006469		-0.015844		-0.017132		
1.953136		-52.044991		689.900759		193.832274		0.069721		0.000000		0.209291		-0.970254		12.861648		3.613551		30.317333		813.405450		179.653933		-0.141619		0.000000		0.218032		1.280095		34.344570		7.585565		0.842545		-0.241779		0.090914		0.381258		1.275904		1.884324		0.006961		0.004509		0.024211		-1.029951		-0.443681		0.067714		-0.351375		1.268346		1.872431		-0.003073		-0.017312		-0.017603		
1.955864		-48.942968		695.634608		189.535245		0.069968		0.000000		0.210368		-0.929533		13.211724		3.599705		29.960528		805.796166		176.260374		-0.141534		0.000000		0.218040		1.254626		33.743497		7.381079		0.897340		-0.263679		0.129297		0.381259		1.275912		1.884285		0.008598		0.005992		0.028906		-1.090264		-0.449454		0.219823		-0.351354		1.268340		1.872367		-0.000188		-0.019842		-0.016747		
1.958591		-45.322826		701.680025		186.193508		0.069970		0.000000		0.211180		-0.876937		13.576715		3.602625		30.040677		801.694060		173.151994		-0.141470		0.000000		0.218134		1.246151		33.256005		7.182725		0.942158		-0.268516		0.102764		0.381263		1.275922		1.884252		0.009085		0.007147		0.033329		-1.186155		-0.427602		0.380236		-0.351330		1.268340		1.872299		0.001620		-0.023216		-0.014916		
1.961318		-41.318649		707.289015		183.546285		0.069693		0.000000		0.211635		-0.817806		13.999428		3.632932		30.486349		801.009011		170.193825		-0.141407		0.000000		0.218300		1.250323		32.851485		6.980109		0.958559		-0.257469		0.017616		0.381270		1.275934		1.884227		0.008464		0.008108		0.036575		-1.308132		-0.378988		0.513876		-0.351305		1.268344		1.872227		0.002131		-0.026859		-0.012728		
1.964045		-37.090192		711.840113		181.414673		0.069191		0.000000		0.211805		-0.754235		14.475522		3.689127		31.160780		803.511981		167.157552		-0.141317		0.000000		0.218537		1.259345		32.473490		6.755587		0.933218		-0.233249		-0.104725		0.381279		1.275947		1.884210		0.007231		0.008879		0.038073		-1.435966		-0.309524		0.593791		-0.351281		1.268348		1.872155		0.001538		-0.030064		-0.010790		
1.966773		-32.784586		714.901412		179.760822		0.068557		0.000000		0.211831		-0.685742		14.953782		3.760095		31.915475		808.941923		163.806959		-0.141175		0.000000		0.218853		1.264914		32.061087		6.492256		0.862212		-0.200308		-0.233445		0.381291		1.275960		1.884195		0.006109		0.009417		0.037638		-1.541396		-0.229545		0.606635		-0.351258		1.268352		1.872087		0.000318		-0.032255		-0.009502		
1.969500		-28.506955		716.323949		178.590566		0.067861		0.000000		0.211827		-0.612500		15.390926		3.837194		32.642713		816.940632		159.991501		-0.140975		0.000000		0.219253		1.261495		31.571110		6.182958		0.754094		-0.165296		-0.336078		0.381302		1.275971		1.884182		0.005770		0.009755		0.035538		-1.595893		-0.153090		0.556751		-0.351240		1.268351		1.872028		-0.000975		-0.033227		-0.008948		
1.972227		-24.313878		716.183066		177.878620		0.067130		0.000000		0.211835		-0.536015		15.789273		3.921585		33.307996		827.220317		155.678801		-0.140734		0.000000		0.219738		1.247761		30.988796		5.832009		0.624829		-0.135172		-0.386786		0.381310		1.275979		1.884168		0.006627		0.010036		0.032323		-1.578622		-0.095934		0.461815		-0.351231		1.268346		1.871978		-0.001949		-0.033149		-0.008958		
1.974955		-20.231761		714.840684		177.501452		0.066369		0.000000		0.211846		-0.457881		16.178358		4.017234		33.942366		839.443923		150.981809		-0.140485		0.000000		0.220294		1.226487		30.332808		5.455665		0.493788		-0.114428		-0.376248		0.381315		1.275984		1.884152		0.008662		0.010475		0.028728		-1.488022		-0.071588		0.350724		-0.351230		1.268335		1.871941		-0.002485		-0.032476		-0.009193		
